<svg width="60" height="62" viewBox="0 0 60 62" fill="none" xmlns="http://www.w3.org/2000/svg">
<path d="M4.4317 36.375C3.91267 36.375 3.46684 36.306 3.09421 36.168C2.72157 36.0326 2.42213 35.8503 2.19589 35.6211C1.96964 35.3919 1.81261 35.138 1.72477 34.8594L3.02633 34.5508C3.08489 34.668 3.17006 34.7839 3.28185 34.8984C3.39364 35.0156 3.54403 35.112 3.73301 35.1875C3.92465 35.2656 4.16553 35.3047 4.45566 35.3047C4.86555 35.3047 5.20492 35.207 5.47375 35.0117C5.74258 34.819 5.87699 34.5013 5.87699 34.0586V32.9219H5.80513C5.7306 33.0677 5.62147 33.2174 5.47774 33.3711C5.33667 33.5247 5.14902 33.6536 4.9148 33.7578C4.68323 33.862 4.39178 33.9141 4.04043 33.9141C3.56932 33.9141 3.14212 33.806 2.75883 33.5898C2.37821 33.3711 2.07478 33.0456 1.84854 32.6133C1.62496 32.1784 1.51317 31.6341 1.51317 30.9805C1.51317 30.3216 1.62496 29.7656 1.84854 29.3125C2.07478 28.8568 2.37954 28.5117 2.76283 28.2773C3.14611 28.0404 3.57331 27.9219 4.04443 27.9219C4.40375 27.9219 4.6992 27.9818 4.93077 28.1016C5.16499 28.2188 5.35131 28.3607 5.48972 28.5273C5.62813 28.6914 5.73326 28.8464 5.80513 28.9922H5.88498V28H7.31031V34.0977C7.31031 34.6107 7.18521 35.0352 6.93501 35.3711C6.68481 35.707 6.34279 35.9583 5.90893 36.125C5.47508 36.2917 4.98267 36.375 4.4317 36.375ZM4.44368 32.8047C4.74977 32.8047 5.01062 32.7318 5.22621 32.5859C5.44181 32.4401 5.6055 32.2305 5.71729 31.957C5.82908 31.6836 5.88498 31.3555 5.88498 30.9727C5.88498 30.5951 5.82908 30.2643 5.71729 29.9805C5.60816 29.6966 5.4458 29.4766 5.2302 29.3203C5.01727 29.1615 4.75509 29.082 4.44368 29.082C4.12161 29.082 3.85278 29.1641 3.63719 29.3281C3.42159 29.4922 3.25923 29.7174 3.1501 30.0039C3.04097 30.2878 2.98641 30.6107 2.98641 30.9727C2.98641 31.3398 3.04097 31.6615 3.1501 31.9375C3.26189 32.2109 3.42558 32.4245 3.64118 32.5781C3.85944 32.7292 4.12694 32.8047 4.44368 32.8047Z" fill="white"/>
<path d="M11.0401 34V28H12.4415V29H12.5054C12.6172 28.6536 12.8088 28.3867 13.0803 28.1992C13.3545 28.0091 13.6672 27.9141 14.0185 27.9141C14.0984 27.9141 14.1876 27.918 14.286 27.9258C14.3872 27.931 14.471 27.9401 14.5376 27.9531V29.2539C14.4764 29.2331 14.3792 29.2148 14.2461 29.1992C14.1157 29.181 13.9893 29.1719 13.8668 29.1719C13.6033 29.1719 13.3664 29.2279 13.1562 29.3398C12.9486 29.4492 12.7849 29.6016 12.6651 29.7969C12.5453 29.9922 12.4854 30.2174 12.4854 30.4727V34H11.0401Z" fill="white"/>
<path d="M20.2088 34.1172C19.5939 34.1172 19.0629 33.9922 18.6157 33.7422C18.1712 33.4896 17.8292 33.1328 17.5897 32.6719C17.3501 32.2083 17.2303 31.6628 17.2303 31.0352C17.2303 30.418 17.3501 29.8763 17.5897 29.4102C17.8319 28.9414 18.1699 28.5768 18.6038 28.3164C19.0376 28.0534 19.5473 27.9219 20.1329 27.9219C20.5109 27.9219 20.8675 27.9818 21.2029 28.1016C21.5409 28.2188 21.839 28.401 22.0972 28.6484C22.3581 28.8958 22.563 29.2109 22.7121 29.5938C22.8611 29.974 22.9356 30.4271 22.9356 30.9531V31.3867H17.9091V30.4336H21.5502C21.5476 30.1628 21.4877 29.9219 21.3706 29.7109C21.2535 29.4974 21.0898 29.3294 20.8795 29.207C20.6719 29.0846 20.4297 29.0234 20.1529 29.0234C19.8574 29.0234 19.5979 29.0938 19.3743 29.2344C19.1507 29.3724 18.9764 29.5547 18.8513 29.7812C18.7289 30.0052 18.6663 30.2513 18.6636 30.5195V31.3516C18.6636 31.7005 18.7289 32 18.8593 32.25C18.9897 32.4974 19.172 32.6875 19.4063 32.8203C19.6405 32.9505 19.9146 33.0156 20.2287 33.0156C20.439 33.0156 20.6293 32.987 20.7996 32.9297C20.97 32.8698 21.1177 32.7826 21.2428 32.668C21.3679 32.5534 21.4624 32.4115 21.5263 32.2422L22.8758 32.3906C22.7906 32.7396 22.6282 33.0443 22.3887 33.3047C22.1518 33.5625 21.8483 33.763 21.4784 33.9062C21.1084 34.0469 20.6852 34.1172 20.2088 34.1172Z" fill="white"/>
<path d="M29.1219 34.1172C28.507 34.1172 27.976 33.9922 27.5288 33.7422C27.0843 33.4896 26.7423 33.1328 26.5028 32.6719C26.2632 32.2083 26.1434 31.6628 26.1434 31.0352C26.1434 30.418 26.2632 29.8763 26.5028 29.4102C26.745 28.9414 27.083 28.5768 27.5169 28.3164C27.9507 28.0534 28.4604 27.9219 29.046 27.9219C29.424 27.9219 29.7806 27.9818 30.116 28.1016C30.454 28.2188 30.7521 28.401 31.0103 28.6484C31.2712 28.8958 31.4761 29.2109 31.6252 29.5938C31.7742 29.974 31.8488 30.4271 31.8488 30.9531V31.3867H26.8222V30.4336H30.4633C30.4607 30.1628 30.4008 29.9219 30.2837 29.7109C30.1666 29.4974 30.0029 29.3294 29.7926 29.207C29.585 29.0846 29.3428 29.0234 29.066 29.0234C28.7705 29.0234 28.511 29.0938 28.2874 29.2344C28.0638 29.3724 27.8895 29.5547 27.7644 29.7812C27.642 30.0052 27.5794 30.2513 27.5768 30.5195V31.3516C27.5768 31.7005 27.642 32 27.7724 32.25C27.9028 32.4974 28.0851 32.6875 28.3194 32.8203C28.5536 32.9505 28.8277 33.0156 29.1418 33.0156C29.3521 33.0156 29.5424 32.987 29.7128 32.9297C29.8831 32.8698 30.0308 32.7826 30.1559 32.668C30.281 32.5534 30.3755 32.4115 30.4394 32.2422L31.7889 32.3906C31.7037 32.7396 31.5413 33.0443 31.3018 33.3047C31.0649 33.5625 30.7615 33.763 30.3915 33.9062C30.0215 34.0469 29.5983 34.1172 29.1219 34.1172Z" fill="white"/>
<path d="M36.7653 30.4844V34H35.3201V28H36.7015V29.0195H36.7733C36.9144 28.6836 37.1393 28.4167 37.4481 28.2188C37.7595 28.0208 38.1441 27.9219 38.6019 27.9219C39.0251 27.9219 39.3938 28.0104 39.7078 28.1875C40.0246 28.3646 40.2695 28.6211 40.4425 28.957C40.6181 29.293 40.7046 29.7005 40.702 30.1797V34H39.2567V30.3984C39.2567 29.9974 39.1502 29.6836 38.9373 29.457C38.727 29.2305 38.4355 29.1172 38.0629 29.1172C37.8101 29.1172 37.5851 29.1719 37.3882 29.2812C37.1939 29.388 37.0408 29.543 36.929 29.7461C36.8199 29.9492 36.7653 30.1953 36.7653 30.4844Z" fill="white"/>
<path d="M47.0948 34.1172C46.4959 34.1172 45.9769 33.9883 45.5377 33.7305C45.0985 33.4727 44.7578 33.112 44.5156 32.6484C44.2761 32.1849 44.1563 31.6432 44.1563 31.0234C44.1563 30.4036 44.2761 29.8607 44.5156 29.3945C44.7578 28.9284 45.0985 28.5664 45.5377 28.3086C45.9769 28.0508 46.4959 27.9219 47.0948 27.9219C47.6937 27.9219 48.2127 28.0508 48.6519 28.3086C49.0911 28.5664 49.4304 28.9284 49.67 29.3945C49.9122 29.8607 50.0333 30.4036 50.0333 31.0234C50.0333 31.6432 49.9122 32.1849 49.67 32.6484C49.4304 33.112 49.0911 33.4727 48.6519 33.7305C48.2127 33.9883 47.6937 34.1172 47.0948 34.1172ZM47.1028 32.9844C47.4275 32.9844 47.699 32.8971 47.9173 32.7227C48.1355 32.5456 48.2979 32.3086 48.4043 32.0117C48.5135 31.7148 48.568 31.3841 48.568 31.0195C48.568 30.6523 48.5135 30.3203 48.4043 30.0234C48.2979 29.724 48.1355 29.4857 47.9173 29.3086C47.699 29.1315 47.4275 29.043 47.1028 29.043C46.7701 29.043 46.4933 29.1315 46.2723 29.3086C46.0541 29.4857 45.8904 29.724 45.7813 30.0234C45.6748 30.3203 45.6216 30.6523 45.6216 31.0195C45.6216 31.3841 45.6748 31.7148 45.7813 32.0117C45.8904 32.3086 46.0541 32.5456 46.2723 32.7227C46.4933 32.8971 46.7701 32.9844 47.1028 32.9844Z" fill="white"/>
<path d="M54.4598 28L55.6975 30.2148L56.9551 28H58.4843L56.6357 31L58.5162 34H56.9951L55.6975 31.8398L54.4119 34H52.8788L54.7473 31L52.9267 28H54.4598Z" fill="white"/>
<path fill-rule="evenodd" clip-rule="evenodd" d="M60 40.9999H18.23C20.0959 45.0536 22.9129 48.6538 26.465 51.4756C26.2352 51.4345 26.0054 51.3903 25.7755 51.3429C19.05 49.9572 13.4794 46.1296 9.83452 40.9999H0C4.25195 53.2141 16.0773 62 30 62C43.9227 62 55.748 53.2141 60 40.9999ZM41.8144 46.3853L51.8992 49.0291C46.2812 57.8223 35.4799 62.6805 24.5457 60.4277C24.3158 60.3803 24.0872 60.3301 23.8601 60.2771C31.4449 58.2479 37.9909 53.259 41.8144 46.3853Z" fill="white"/>
<path fill-rule="evenodd" clip-rule="evenodd" d="M59.9999 20.9999H51.1988C47.554 15.8703 41.9834 12.0426 35.2578 10.657C35.0279 10.6096 34.7981 10.5654 34.5684 10.5243C38.1204 13.3461 40.9374 16.9462 42.8033 20.9999H6.07931e-05C4.25207 8.78583 16.0774 0 30 0C43.9226 0 55.7479 8.78583 59.9999 20.9999ZM9.13394 12.9712L19.2187 15.615C23.0422 8.7411 29.5883 3.75197 37.1733 1.7228C36.9461 1.66977 36.7176 1.61956 36.4877 1.57219C25.5533 -0.680612 14.7519 4.17772 9.13394 12.9712Z" fill="white"/>
</svg>
