<svg width="24" height="24" viewBox="0 0 24 24" fill="none" xmlns="http://www.w3.org/2000/svg">
<path fill-rule="evenodd" clip-rule="evenodd" d="M16.6076 21L14.1344 7.80988L3 8.8221V17.8C3 18.9201 3 19.4802 3.21799 19.908C3.40973 20.2843 3.71569 20.5903 4.09202 20.782C4.51984 21 5.0799 21 6.2 21H16.6076ZM12.5 15.0294C12.5 17.1878 10.3603 18.704 9.42687 19.2628C9.16232 19.4211 8.83768 19.4211 8.57313 19.2628C7.63974 18.704 5.5 17.1878 5.5 15.0294C5.5 12.9118 7.19587 11.5 9 11.5C10.8667 11.5 12.5 12.9118 12.5 15.0294Z" fill="#00AE25"/>
<path d="M3.21799 4.09202C3 4.51984 3 5.0799 3 6.2V6.81385L20.9895 5.17845C20.9711 4.68953 20.9206 4.36404 20.782 4.09202C20.5903 3.71569 20.2843 3.40973 19.908 3.21799C19.4802 3 18.9201 3 17.8 3H6.2C5.0799 3 4.51984 3 4.09202 3.21799C3.71569 3.40973 3.40973 3.71569 3.21799 4.09202Z" fill="url(#paint0_linear_2028_3)"/>
<path d="M21 7.18574L16.1352 7.62799L18.6414 20.9947C19.2329 20.9818 19.6039 20.937 19.908 20.782C20.2843 20.5903 20.5903 20.2843 20.782 19.908C21 19.4802 21 18.9201 21 17.8V7.18574Z" fill="url(#paint1_linear_2028_3)"/>
<circle cx="9" cy="15" r="1" fill="#00AE25"/>
<defs>
<linearGradient id="paint0_linear_2028_3" x1="14.8917" y1="-0.765938" x2="0.638314" y2="6.19696" gradientUnits="userSpaceOnUse">
<stop offset="0.22586" stop-color="#6AFA26"/>
<stop offset="1" stop-color="#00A124"/>
</linearGradient>
<linearGradient id="paint1_linear_2028_3" x1="14.8917" y1="-0.765938" x2="0.638314" y2="6.19696" gradientUnits="userSpaceOnUse">
<stop offset="0.22586" stop-color="#6AFA26"/>
<stop offset="1" stop-color="#00A124"/>
</linearGradient>
</defs>
</svg>
